<svg xmlns="http://www.w3.org/2000/svg" width="512" height="512" viewBox="0 0 512 512">
  <defs>
    <linearGradient id="bg" x1="0" y1="0" x2="1" y2="1">
      <stop offset="0" stop-color="#5b5bd6"/>
      <stop offset="1" stop-color="#8b5cf6"/>
    </linearGradient>
  </defs>
  <rect width="512" height="512" rx="115.2" ry="115.2" fill="url(#bg)"/>
  <g transform="translate(92.16 92.16) scale(13.653333333333334)">
    <path d="M4 14a1 1 0 0 1-.78-1.63l9.9-10.2a.5.5 0 0 1 .86.46l-1.92 6.02A1 1 0 0 0 13 10h7a1 1 0 0 1 .78 1.63l-9.9 10.2a.5.5 0 0 1-.86-.46l1.92-6.02A1 1 0 0 0 11 14z" fill="#ffffff"/>
  </g>
</svg>